<svg width="576" height="691" viewBox="0 0 576 691" fill="none" xmlns="http://www.w3.org/2000/svg">
<path d="M282.375 1.66207C261.562 13.1406 96.8625 110.597 95.4 112.397C90.5625 118.024 95.5125 127.477 102.713 126.577C104.85 126.352 142.088 105.082 196.313 73.3475C245.813 44.3136 287.1 20.5681 288 20.5681C290.7 20.5681 550.35 173.166 549.338 174.179C547.763 175.755 290.925 326.326 288.9 326.776C287.888 327.113 265.388 314.622 234.9 296.729C206.213 279.962 182.475 265.782 182.025 265.445C181.688 264.995 208.238 248.902 240.975 229.771C273.825 210.528 302.287 193.648 304.087 192.072C312.75 184.982 313.987 170.24 306.787 160.45C301.837 153.585 290.025 150.097 281.813 152.91C279.338 153.81 245.25 173.391 206.213 196.348L135 238.099L81.3375 206.589C51.75 189.259 27.1125 174.629 26.6625 174.179C26.2125 173.729 36.1125 167.315 48.6 160C61.2 152.685 72.5625 145.708 74.025 144.47C77.7375 141.094 77.5125 134.454 73.575 131.416C71.8875 130.066 69.3 129.053 67.8375 129.053C65.025 129.053 7.3125 162.138 2.475 166.527C0.1125 168.777 0 169.34 0 192.86C0 206.139 0.45 217.843 1.125 218.968C1.6875 220.093 21.15 232.134 44.325 245.639L86.4 270.284L86.85 302.919L87.1875 335.553L90.675 345.231C95.4 358.398 102.6 368.863 115.313 380.905L126 391.033V408.475C126 424.23 125.775 569.204 123.75 571.792C118.8 578.094 118.125 581.695 118.125 602.064C118.125 619.957 117.675 623.558 113.625 645.728C111.15 659.007 109.125 671.048 109.125 672.511C109.125 679.826 116.438 685.227 131.85 689.166C150.863 694.117 181.125 688.491 187.425 678.925C190.013 674.987 189.675 670.598 185.063 645.728C181.238 625.471 180.9 622.32 181.125 604.652C181.238 583.946 180.338 578.995 174.938 571.905C172.913 569.204 172.125 423.78 172.125 420.066V415.002L182.025 418.378C199.238 424.23 221.963 429.294 244.688 432.333C250.088 433.12 250.988 433.796 266.738 449.326C282.713 465.08 283.275 465.531 288 465.531C292.725 465.531 293.288 465.08 309.263 449.326C325.013 433.796 325.913 433.12 331.313 432.333C376.875 426.256 415.35 413.427 442.688 395.309C454.838 387.094 457.875 383.943 457.875 379.442C457.875 372.014 450.113 367.738 444.263 371.789C420.975 387.882 408.713 394.184 385.875 401.723C370.013 407.013 350.775 411.514 333.563 413.765C318.6 415.79 315.113 417.703 300.713 432.108L288 444.712L275.4 432.108C260.888 417.703 257.4 415.79 242.438 413.765C222.075 411.064 200.475 405.775 181.35 398.91L172.125 395.534V358.398C172.125 328.914 172.463 321.374 173.588 321.824C174.375 322.049 199.688 336.791 229.838 354.572C268.65 377.416 285.525 386.756 288 386.756C290.363 386.756 315.338 372.69 375.975 337.129C422.55 309.783 463.163 286.038 466.088 284.125L471.6 280.862L471.15 307.082C470.7 330.827 470.475 333.865 468.225 339.492C463.838 350.52 465.975 357.497 473.738 357.497C478.913 357.497 480.938 355.922 483.638 349.508C488.475 338.479 489.375 330.602 489.375 299.543L489.488 270.284L531.675 245.639C554.85 232.134 574.313 220.093 574.875 218.968C575.55 217.843 576 206.139 576 192.86C576 169.34 575.888 168.777 573.525 166.527C572.063 165.289 529.988 140.193 479.813 110.822C429.75 81.3378 366.975 44.5381 340.425 29.0083C313.763 13.366 290.813 0.424191 289.238 0.0865873C287.55 -0.251017 284.625 0.424194 282.375 1.66207ZM291.938 171.366C296.438 175.98 295.875 176.317 225.563 217.618C188.438 239.337 157.163 258.242 156.15 259.593C154.238 261.956 154.125 267.132 154.125 339.042V562.186H149.063H144V388.557V360.986L141.075 358.735C136.013 354.797 129.375 356.485 127.013 362.336L125.55 365.825L120.038 359.636C113.625 352.433 107.325 340.167 105.75 331.727C105.075 328.464 104.625 315.635 104.625 303.369V281.087L115.088 287.164L125.438 293.241L126 312.034C126.563 329.927 126.675 330.827 129.263 332.853C132.75 335.666 138.15 335.553 141.413 332.515L144 330.152V292.791C144 257.567 144.113 255.317 146.138 253.516C148.95 250.928 287.1 169.678 288.788 169.678C289.463 169.565 290.925 170.353 291.938 171.366ZM92.8125 234.61L125.438 253.741L125.775 262.969C126 268.033 125.663 271.972 125.213 271.747C124.763 271.409 100.125 257.117 70.65 239.787L16.875 208.39V199.162V189.934L38.5875 202.65C50.4 209.74 74.925 224.032 92.8125 234.61ZM558.9 208.39C558.675 208.615 497.7 244.401 423.338 288.064L288 367.513L230.063 333.528L172.125 299.543V290.315V281.087L201.15 298.08C276.863 342.643 285.188 347.369 288 347.369C290.813 347.369 306.9 338.142 498.375 225.72L558.562 190.384L558.9 199.274C559.125 204.113 559.125 208.277 558.9 208.39ZM155.363 578.769C160.875 581.695 163.125 586.534 163.125 595.875V604.09H149.625H136.125V595.312C136.238 585.747 137.475 582.483 142.425 579.22C146.363 576.631 150.863 576.519 155.363 578.769ZM166.05 641.789C167.963 652.255 169.875 662.72 170.213 664.971L171 668.91L164.588 670.935C160.65 672.173 154.688 673.073 149.625 673.073C140.288 673.073 128.25 670.148 128.25 667.897C128.25 666.997 130.05 656.756 132.188 645.052C134.325 633.349 136.125 623.333 136.125 622.883C136.125 622.433 142.088 622.208 149.288 622.32L162.563 622.658L166.05 641.789Z" fill="#5570F1"/>
</svg>
