<svg width="662" height="681" viewBox="0 0 662 681" fill="none" xmlns="http://www.w3.org/2000/svg">
<path d="M316.821 1.63804C296.321 12.9505 134.101 108.996 132.661 110.771C127.896 116.316 132.772 125.632 139.863 124.745C141.969 124.523 178.645 103.562 232.054 72.286C280.809 43.6723 321.474 20.2704 322.361 20.2704C325.02 20.2704 580.761 170.66 579.764 171.658C578.212 173.211 325.242 321.603 323.247 322.047C322.25 322.379 300.089 310.069 270.06 292.435C241.805 275.91 218.425 261.936 217.982 261.603C217.649 261.16 243.799 245.3 276.044 226.446C308.399 207.481 336.433 190.845 338.206 189.292C346.738 182.305 347.957 167.777 340.866 158.128C335.99 151.363 324.355 147.925 316.267 150.697C313.829 151.584 280.255 170.882 241.805 193.507L171.665 234.653L118.81 203.599C89.668 186.52 65.4015 172.102 64.9582 171.658C64.515 171.215 74.2659 164.893 86.5654 157.684C98.9757 150.475 110.167 143.599 111.608 142.379C115.264 139.052 115.043 132.509 111.164 129.514C109.502 128.183 106.954 127.185 105.513 127.185C102.743 127.185 45.8996 159.791 41.1349 164.117C38.808 166.335 38.6972 166.889 38.6972 190.069C38.6972 203.156 39.1404 214.69 39.8052 215.799C40.3593 216.908 59.5287 228.775 82.3548 242.084L123.796 266.372L124.24 298.535L124.572 330.697L128.007 340.235C132.661 353.211 139.752 363.525 152.273 375.392L162.8 385.374V402.564C162.8 418.091 162.578 560.966 160.584 563.517C155.708 569.728 155.044 573.277 155.044 593.351C155.044 610.985 154.6 614.534 150.611 636.382C148.174 649.469 146.179 661.336 146.179 662.778C146.179 669.987 153.382 675.31 168.562 679.192C187.288 684.072 217.095 678.527 223.3 669.1C225.849 665.218 225.516 660.893 220.973 636.382C217.206 616.419 216.873 613.314 217.095 595.902C217.206 575.495 216.319 570.615 211.001 563.628C209.006 560.966 208.231 417.647 208.231 413.987V408.996L217.982 412.324C234.935 418.091 257.318 423.081 279.701 426.076C285.019 426.852 285.906 427.518 301.419 442.823C317.153 458.35 317.707 458.793 322.361 458.793C327.015 458.793 327.569 458.35 343.303 442.823C358.816 427.518 359.703 426.852 365.021 426.076C409.898 420.087 447.794 407.444 474.719 389.588C486.686 381.492 489.678 378.387 489.678 373.95C489.678 366.631 482.033 362.416 476.271 366.409C453.334 382.268 441.256 388.479 418.762 395.91C403.139 401.122 384.191 405.558 367.237 407.776C352.5 409.773 349.065 411.658 334.882 425.854L322.361 438.276L309.951 425.854C295.657 411.658 292.222 409.773 277.484 407.776C257.429 405.115 236.154 399.902 217.317 393.137L208.231 389.81V353.211C208.231 324.154 208.563 316.723 209.671 317.167C210.447 317.388 235.378 331.917 265.074 349.44C303.302 371.954 319.923 381.159 322.361 381.159C324.688 381.159 349.287 367.296 409.011 332.25C454.885 305.3 494.886 281.899 497.767 280.013L503.197 276.797L502.753 302.638C502.31 326.039 502.089 329.033 499.872 334.579C495.551 345.448 497.656 352.324 505.302 352.324C510.399 352.324 512.394 350.771 515.053 344.449C519.818 333.581 520.704 325.818 520.704 295.208L520.815 266.372L562.367 242.084C585.193 228.775 604.363 216.908 604.917 215.799C605.581 214.69 606.025 203.156 606.025 190.069C606.025 166.889 605.914 166.335 603.587 164.117C602.146 162.897 560.705 138.164 511.285 109.218C461.977 80.1607 400.147 43.8935 373.997 28.5885C347.736 13.1725 325.131 0.418074 323.58 0.0853565C321.918 -0.247361 319.037 0.418077 316.821 1.63804ZM326.239 168.886C330.671 173.433 330.117 173.766 260.864 214.468C224.297 235.873 193.493 254.505 192.496 255.836C190.612 258.165 190.502 263.266 190.502 334.135V554.05H180.529V355.762L177.648 353.544C172.662 349.662 166.124 351.326 163.797 357.093L162.357 360.531L156.927 354.431C150.611 347.333 144.406 335.244 142.855 326.926C142.19 323.71 141.747 311.067 141.747 298.978V277.019L152.052 283.008L162.246 288.997L162.8 307.518C163.354 325.152 163.465 326.039 166.013 328.035C169.448 330.808 174.767 330.697 177.981 327.703L180.529 325.374V288.553C180.529 253.84 180.64 251.622 182.634 249.847C185.405 247.296 321.474 167.222 323.137 167.222C323.801 167.111 325.242 167.888 326.239 168.886ZM130.112 231.215L162.246 250.069L162.578 259.163C162.8 264.154 162.468 268.036 162.024 267.814C161.581 267.481 137.315 253.396 108.283 236.317L55.3181 205.374V187.185L76.7037 199.718C88.3383 206.705 112.494 220.79 130.112 231.215ZM589.182 205.374C588.961 205.596 528.904 240.864 455.661 283.895L322.361 362.194L208.231 295.208V277.019L236.819 293.766C311.391 337.685 319.591 342.342 322.361 342.342C325.131 342.342 340.976 333.248 529.568 222.453L588.85 187.629L589.182 196.39C589.404 201.159 589.404 205.263 589.182 205.374ZM191.72 570.393C197.15 573.277 199.366 578.046 199.366 587.251V595.347H172.773V586.696C172.883 577.269 174.102 574.053 178.978 570.837C182.856 568.286 187.288 568.175 191.72 570.393ZM202.247 632.501C204.131 642.815 206.014 653.129 206.347 655.347L207.123 659.229L200.807 661.225C196.928 662.445 191.056 663.333 186.069 663.333C176.872 663.333 165.016 660.449 165.016 658.231C165.016 657.344 166.789 647.251 168.894 635.717C171 624.183 172.773 614.312 172.773 613.868C172.773 613.425 178.645 613.203 185.737 613.314L198.812 613.647L202.247 632.501Z" fill="#5570F1"/>
<path d="M0 643.087L26.313 551.13H53.9489L80.2619 643.087H62.1809L40.719 568.05H39.396L18.081 643.087H0ZM14.259 623.813V609.982H66.1499V623.813H14.259Z" fill="#5570F1"/>
<path d="M118.08 644.706C112.69 644.706 108.182 644.117 104.556 642.94C100.93 641.665 98.0389 639.605 95.8829 636.761C93.8249 633.818 92.3059 629.894 91.3259 624.99C90.4439 619.987 90.003 613.759 90.003 606.304C90.003 598.849 90.4439 592.67 91.3259 587.765C92.3059 582.763 93.8249 578.839 95.8829 575.995C98.0389 573.052 100.93 570.992 104.556 569.815C108.182 568.54 112.69 567.903 118.08 567.903C120.824 567.903 123.666 568.001 126.606 568.197C129.644 568.393 132.535 568.736 135.279 569.227C138.023 569.619 140.326 570.11 142.188 570.698L140.277 583.94C137.043 583.155 133.858 582.616 130.722 582.322C127.684 581.929 124.499 581.733 121.167 581.733C116.659 581.733 113.523 582.616 111.759 584.381C109.995 586.147 109.113 589.286 109.113 593.798V629.404C112.151 630.385 116.561 630.875 122.343 630.875C125.577 630.875 128.664 630.581 131.604 629.992C134.642 629.404 138.121 628.472 142.041 627.197L143.805 640.145C140.277 641.616 136.259 642.744 131.751 643.529C127.341 644.313 122.784 644.706 118.08 644.706Z" fill="#5570F1"/>
<path d="M254.446 567.903C260.62 567.903 265.667 568.491 269.587 569.668C273.507 570.747 276.545 572.709 278.701 575.554C280.955 578.398 282.523 582.322 283.405 587.324C284.385 592.229 284.875 598.555 284.875 606.304C284.875 614.151 284.385 620.625 283.405 625.726C282.523 630.826 280.955 634.799 278.701 637.643C276.545 640.488 273.507 642.45 269.587 643.529C265.667 644.706 260.62 645.294 254.446 645.294C249.056 645.294 244.548 644.657 240.922 643.382C237.394 642.106 234.601 640.046 232.543 637.202C230.485 634.259 229.015 630.287 228.133 625.284C227.251 620.184 226.81 613.857 226.81 606.304C226.81 598.849 227.251 592.67 228.133 587.765C229.015 582.763 230.485 578.839 232.543 575.995C234.699 573.052 237.541 570.992 241.069 569.815C244.695 568.54 249.154 567.903 254.446 567.903ZM273.556 582.174H252.535C249.987 582.174 248.223 582.469 247.243 583.057C246.361 583.548 245.92 584.529 245.92 586V630.875H267.088C269.636 630.875 271.351 630.63 272.233 630.14C273.115 629.649 273.556 628.668 273.556 627.197V582.174ZM291.637 543.92V643.087H283.111L273.556 627.197V545.686L291.637 543.92Z" fill="#5570F1"/>
<path d="M342.234 644.706C336.452 644.706 331.552 644.068 327.534 642.793C323.516 641.518 320.331 639.458 317.979 636.613C315.627 633.671 313.912 629.747 312.834 624.843C311.854 619.84 311.364 613.661 311.364 606.304C311.364 596.79 312.393 589.237 314.451 583.646C316.509 577.957 319.939 573.935 324.741 571.581C329.641 569.129 336.158 567.903 344.292 567.903C352.23 567.903 358.404 568.589 362.814 569.963C367.224 571.238 370.311 573.543 372.075 576.878C373.937 580.115 374.868 584.676 374.868 590.561C374.868 595.564 374.28 599.634 373.104 602.773C371.928 605.814 369.772 608.168 366.636 609.835C363.5 611.503 359.041 612.68 353.259 613.367C347.477 613.955 339.882 614.249 330.474 614.249H326.064V603.509H346.644C351.25 603.509 354.386 602.969 356.052 601.89C357.718 600.713 358.551 598.555 358.551 595.416V582.027H342.234C337.726 582.027 334.639 582.567 332.973 583.646C331.307 584.725 330.474 586.834 330.474 589.972V629.404C332.434 629.894 334.541 630.287 336.795 630.581C339.049 630.777 341.793 630.875 345.027 630.875C349.045 630.875 353.014 630.581 356.934 629.992C360.854 629.404 365.411 628.472 370.605 627.197L372.957 640.145C368.939 641.616 364.235 642.744 358.845 643.529C353.553 644.313 348.016 644.706 342.234 644.706Z" fill="#5570F1"/>
<path d="M396.014 643.087V569.521H404.54L409.391 576.878C413.017 573.837 416.986 571.581 421.298 570.11C425.61 568.638 430.412 567.903 435.704 567.903C442.564 567.903 447.807 569.08 451.433 571.434C455.059 573.69 456.872 577.025 456.872 581.439V643.087H438.791V582.763H424.973C420.857 582.763 418.015 583.302 416.447 584.381C414.879 585.362 414.095 587.324 414.095 590.267V643.087H396.014ZM438.791 643.087V569.521L452.021 576.878C455.647 573.837 459.616 571.581 463.928 570.11C468.24 568.638 473.042 567.903 478.334 567.903C485.194 567.903 490.437 569.08 494.063 571.434C497.689 573.69 499.502 577.025 499.502 581.439V643.087H481.421V582.763H467.603C463.487 582.763 460.645 583.302 459.077 584.381C457.509 585.362 456.725 587.324 456.725 590.267V643.087H438.791Z" fill="#5570F1"/>
<path d="M584.079 569.521V643.087H575.406L570.702 635.731C566.684 638.771 562.323 641.027 557.619 642.499C552.915 643.97 547.623 644.706 541.743 644.706C534.883 644.706 529.836 643.382 526.602 640.733C523.368 637.987 521.751 633.72 521.751 627.933V569.521H539.832V631.464H554.973C559.187 631.464 562.078 630.924 563.646 629.845C565.214 628.766 565.998 626.805 565.998 623.96V569.521H584.079Z" fill="#5570F1"/>
<path d="M603.2 589.972C603.2 582.125 605.552 576.387 610.256 572.758C614.96 569.129 622.261 567.314 632.159 567.314C636.863 567.314 641.371 567.608 645.683 568.197C649.995 568.687 654.209 569.472 658.325 570.551L655.973 583.499C653.523 582.812 650.681 582.273 647.447 581.88C644.311 581.488 641.224 581.292 638.186 581.292C635.246 581.292 632.404 581.439 629.66 581.733C626.916 581.929 624.515 582.224 622.457 582.616V597.182C630.591 598.261 637.206 599.438 642.302 600.713C647.496 601.89 651.514 603.411 654.356 605.274C657.198 607.04 659.158 609.247 660.236 611.895C661.412 614.544 662 617.879 662 621.9C662 627.393 660.922 631.905 658.766 635.436C656.61 638.869 653.18 641.371 648.476 642.94C643.772 644.509 637.5 645.294 629.66 645.294C625.054 645.294 620.399 644.902 615.695 644.117C610.991 643.332 606.336 642.253 601.73 640.88L604.376 626.903C611.824 629.845 619.86 631.317 628.484 631.317C631.032 631.317 633.335 631.219 635.393 631.022C637.549 630.728 640.048 630.238 642.89 629.551V614.838C634.266 613.661 627.308 612.533 622.016 611.454C616.822 610.277 612.853 608.805 610.109 607.04C607.463 605.274 605.65 603.018 604.67 600.272C603.69 597.525 603.2 594.092 603.2 589.972Z" fill="#5570F1"/>
</svg>
